control3min_grf.mot
version=1
nRows=12
nColumns 19
inDegrees=yes
endheader
time	1_ground_force_vx	1_ground_force_vy	1_ground_force_vz	1_ground_force_px	1_ground_force_py	1_ground_force_pz	1_ground_torque_x	1_ground_torque_y	1_ground_torque_z	2_ground_force_vx	2_ground_force_vy	2_ground_force_vz	2_ground_force_px	2_ground_force_py	2_ground_force_pz	2_ground_torque_x	2_ground_torque_y	2_ground_torque_z
            1.253500	            0.550440	            0.720383	            0.185150	           -0.233013	            0.005581	           -0.255695	            0.310812	            0.222242	            0.004814	            0.513793	            0.371998	           -0.515114	           -0.232311	            0.006130	           -0.833667	           -0.262737	           -0.085620	           -0.113293
            1.254000	            0.458442	            1.802155	            0.144160	           -0.233013	            0.005581	           -0.255695	            0.330983	           -0.082991	            0.037104	            0.702748	            0.002537	           -0.000299	           -0.232311	            0.006130	           -0.833667	           -0.243685	           -0.179475	           -0.283290
            1.254500	            0.275688	            2.161472	            0.421296	           -0.233013	            0.005581	           -0.255695	            0.206320	           -0.332501	           -0.009084	            1.265838	           -0.181422	            0.515014	           -0.232311	            0.006130	           -0.833667	           -0.243764	           -0.142134	           -0.151204
            1.255000	            0.137200	            1.802683	            0.007388	           -0.233013	            0.005581	           -0.255695	            0.355741	           -0.416063	            0.059527	            0.841845	            0.372346	           -0.280613	           -0.232311	            0.006130	           -0.833667	           -0.224843	           -0.170694	           -0.075912
            1.255500	            0.367520	            1.981027	            0.466152	           -0.233013	            0.005581	           -0.255695	            0.223476	           -0.221936	            0.089253	            0.422129	           -0.181120	           -0.423189	           -0.232311	            0.006130	           -0.833667	           -0.169033	           -0.019247	           -0.075396
            1.256000	            0.274582	            1.983172	           -0.038036	           -0.233013	            0.005581	           -0.255695	            0.357397	            0.157251	            0.030243	            0.282620	           -0.547581	           -1.081437	           -0.232311	            0.006130	           -0.833667	           -0.281933	            0.036928	           -0.037446
            1.256500	            0.412341	            0.721339	           -0.043788	           -0.233013	            0.005581	           -0.255695	            0.189000	            0.379527	           -0.056468	           -0.001158	            0.188165	           -1.125617	           -0.232311	            0.006130	           -0.833667	           -0.300573	           -0.010202	           -0.094157
            1.257000	            0.274600	            1.262306	           -0.086984	           -0.233013	            0.005581	           -0.255695	            0.247362	            0.203123	            0.105931	            0.138891	            0.371482	           -0.749595	           -0.232311	            0.006130	           -0.833667	           -0.412807	           -0.142947	           -0.094581
            1.257500	            0.320784	            1.261725	            0.050470	           -0.233013	            0.005581	           -0.255695	            0.260292	           -0.157261	            0.087510	            0.327661	            0.003527	           -0.657133	           -0.232311	            0.006130	           -0.833667	           -0.130975	           -0.160700	           -0.132469
            1.258000	            0.137931	            2.161838	            0.329926	           -0.233013	            0.005581	           -0.255695	            0.360358	           -0.397161	           -0.034406	            0.653761	            0.555985	           -0.326804	           -0.232311	            0.006130	           -0.833667	           -0.206047	           -0.189061	           -0.207939
            1.258500	           -0.000605	            1.442715	           -0.131384	           -0.233013	            0.005581	           -0.255695	            0.286777	           -0.388495	            0.072764	            0.700734	            0.555150	           -0.045256	           -0.232311	            0.006130	           -0.833667	           -0.262601	           -0.123431	           -0.113428
            1.259000	            0.229506	            0.900586	            0.186720	           -0.233013	            0.005581	           -0.255695	            0.310869	           -0.147884	            0.045932	            0.561390	            0.187350	           -0.328079	           -0.232311	            0.006130	           -0.833667	           -0.244497	            0.056507	           -0.188196
